# xmcd CD database file
#
# Track frame offsets:
#	150
#	17196
#	32789
#	48243
#	66816
#	91757
#	115457
#	134135
#	151808
#	169793
#	188005
#	203316
#	222981
#	244122
#	260446
#	289493
#	312031
#
# Disc length: 4389 seconds
#
# Revision: 0
# Processed by: cddbd v1.5.1PL0 Copyright (c) Steve Scherf et al.
# Submitted via: CDex 1.51
#
DISCID=f0112311
DTITLE=Foggy Bottom Classic Jazz Band - Live in Alingsås  Jazzfestival 2004
DYEAR=2004
DGENRE=Jazz
TTITLE0=South
TTITLE1=The Southern Stomps
TTITLE2=Joe Turner Blues
TTITLE3=Terrible Blues
TTITLE4=Chimes Blues
TTITLE5=Papa De-Da-Da
TTITLE6=Gate Mouth
TTITLE7=Where Did You Stay Last Night?
TTITLE8=Sidewalk Blues
TTITLE9=Room Rent Blues
TTITLE10=Ory's Creole Trumbone
TTITLE11=Camp Meeting Blues
TTITLE12=Snake Rag
TTITLE13=Bogalusa Strut
TTITLE14=Cake Walkin' Blues
TTITLE15=Nuber Two Blues/ Tiger Rag
TTITLE16=Lord, Lord, Lord
EXTD=YEAR: 2004
EXTT0=
EXTT1=
EXTT2=
EXTT3=
EXTT4=
EXTT5=
EXTT6=
EXTT7=
EXTT8=
EXTT9=
EXTT10=
EXTT11=
EXTT12=
EXTT13=
EXTT14=
EXTT15=
EXTT16=
PLAYORDER=
